<svg xmlns="http://www.w3.org/2000/svg" width="1792" height="1024" viewBox="0 0 1792 1024">
  <defs>
    <!-- Deep space gradient - slightly different palette -->
    <radialGradient id="spaceGrad" cx="50%" cy="40%" r="70%">
      <stop offset="0%" stop-color="#0a1628"/>
      <stop offset="50%" stop-color="#050e1a"/>
      <stop offset="100%" stop-color="#020710"/>
    </radialGradient>
    <!-- Teal nebula -->
    <radialGradient id="nebula1" cx="65%" cy="35%" r="45%">
      <stop offset="0%" stop-color="#006064" stop-opacity="0.3"/>
      <stop offset="100%" stop-color="#006064" stop-opacity="0"/>
    </radialGradient>
    <!-- Purple nebula -->
    <radialGradient id="nebula2" cx="20%" cy="65%" r="40%">
      <stop offset="0%" stop-color="#4a148c" stop-opacity="0.25"/>
      <stop offset="100%" stop-color="#4a148c" stop-opacity="0"/>
    </radialGradient>
    <!-- Station module gradient -->
    <linearGradient id="moduleGrad" x1="0%" y1="0%" x2="100%" y2="100%">
      <stop offset="0%" stop-color="#546e7a"/>
      <stop offset="100%" stop-color="#263238"/>
    </linearGradient>
    <!-- Window glow -->
    <radialGradient id="windowGrad" cx="50%" cy="50%" r="50%">
      <stop offset="0%" stop-color="#ffe082"/>
      <stop offset="60%" stop-color="#ff8f00"/>
      <stop offset="100%" stop-color="#e65100"/>
    </radialGradient>
    <!-- Solar panel gradient -->
    <linearGradient id="solarGrad" x1="0%" y1="0%" x2="0%" y2="100%">
      <stop offset="0%" stop-color="#1565c0"/>
      <stop offset="100%" stop-color="#0d47a1"/>
    </linearGradient>
    <!-- Cat gradient - grey tabby this time -->
    <radialGradient id="catGrad" cx="50%" cy="40%" r="60%">
      <stop offset="0%" stop-color="#9e9e9e"/>
      <stop offset="100%" stop-color="#616161"/>
    </radialGradient>
    <!-- Glow filter for window -->
    <filter id="windowGlow" x="-80%" y="-80%" width="260%" height="260%">
      <feGaussianBlur stdDeviation="15" result="blur"/>
      <feMerge><feMergeNode in="blur"/><feMergeNode in="SourceGraphic"/></feMerge>
    </filter>
    <!-- Station glow -->
    <filter id="stationGlow" x="-20%" y="-20%" width="140%" height="140%">
      <feGaussianBlur stdDeviation="4" result="blur"/>
      <feMerge><feMergeNode in="blur"/><feMergeNode in="SourceGraphic"/></feMerge>
    </filter>
    <!-- Star glow -->
    <filter id="starGlow">
      <feGaussianBlur stdDeviation="2.5" result="blur"/>
      <feMerge><feMergeNode in="blur"/><feMergeNode in="SourceGraphic"/></feMerge>
    </filter>
    <!-- Earth gradient -->
    <radialGradient id="earthGrad" cx="40%" cy="35%" r="60%">
      <stop offset="0%" stop-color="#29b6f6"/>
      <stop offset="35%" stop-color="#0277bd"/>
      <stop offset="100%" stop-color="#01579b"/>
    </radialGradient>
  </defs>

  <!-- Background -->
  <rect width="1792" height="1024" fill="url(#spaceGrad)"/>
  <rect width="1792" height="1024" fill="url(#nebula1)"/>
  <rect width="1792" height="1024" fill="url(#nebula2)"/>

  <!-- Stars -->
  <g opacity="0.55">
    <circle cx="30" cy="50" r="1" fill="#fff"/><circle cx="110" cy="20" r="1.2" fill="#fff"/>
    <circle cx="190" cy="90" r="0.8" fill="#fff"/><circle cx="290" cy="40" r="1" fill="#fff"/>
    <circle cx="390" cy="75" r="1.3" fill="#fff"/><circle cx="500" cy="15" r="0.9" fill="#fff"/>
    <circle cx="610" cy="95" r="1.1" fill="#fff"/><circle cx="720" cy="30" r="0.8" fill="#fff"/>
    <circle cx="840" cy="60" r="1.2" fill="#fff"/><circle cx="960" cy="20" r="1" fill="#fff"/>
    <circle cx="1070" cy="80" r="0.9" fill="#fff"/><circle cx="1180" cy="40" r="1.1" fill="#fff"/>
    <circle cx="1290" cy="90" r="1" fill="#fff"/><circle cx="1410" cy="25" r="1.3" fill="#fff"/>
    <circle cx="1520" cy="70" r="0.8" fill="#fff"/><circle cx="1640" cy="45" r="1" fill="#fff"/>
    <circle cx="1740" cy="100" r="1.2" fill="#fff"/>
    <circle cx="60" cy="185" r="0.9" fill="#fff"/><circle cx="150" cy="265" r="1" fill="#fff"/>
    <circle cx="270" cy="215" r="1.1" fill="#fff"/><circle cx="360" cy="290" r="0.8" fill="#fff"/>
    <circle cx="470" cy="175" r="1.2" fill="#fff"/><circle cx="570" cy="250" r="1" fill="#fff"/>
    <circle cx="690" cy="195" r="0.9" fill="#fff"/><circle cx="800" cy="275" r="1.1" fill="#fff"/>
    <circle cx="920" cy="165" r="1" fill="#fff"/><circle cx="1040" cy="240" r="1.3" fill="#fff"/>
    <circle cx="1150" cy="185" r="0.8" fill="#fff"/><circle cx="1260" cy="260" r="1" fill="#fff"/>
    <circle cx="1370" cy="210" r="1.2" fill="#fff"/><circle cx="1480" cy="280" r="0.9" fill="#fff"/>
    <circle cx="1590" cy="170" r="1.1" fill="#fff"/><circle cx="1700" cy="240" r="1" fill="#fff"/>
    <circle cx="20" cy="390" r="1" fill="#fff"/><circle cx="130" cy="440" r="1.2" fill="#fff"/>
    <circle cx="240" cy="370" r="0.8" fill="#fff"/><circle cx="350" cy="460" r="1" fill="#fff"/>
    <circle cx="475" cy="400" r="1.1" fill="#fff"/><circle cx="590" cy="380" r="0.9" fill="#fff"/>
    <circle cx="1450" cy="400" r="1" fill="#fff"/><circle cx="1560" cy="380" r="1.2" fill="#fff"/>
    <circle cx="1660" cy="450" r="0.8" fill="#fff"/><circle cx="1750" cy="410" r="1.1" fill="#fff"/>
    <circle cx="55" cy="590" r="1" fill="#fff"/><circle cx="175" cy="650" r="0.9" fill="#fff"/>
    <circle cx="310" cy="570" r="1.1" fill="#fff"/><circle cx="430" cy="640" r="1" fill="#fff"/>
    <circle cx="1460" cy="600" r="1.2" fill="#fff"/><circle cx="1580" cy="570" r="1" fill="#fff"/>
    <circle cx="1700" cy="640" r="1.1" fill="#fff"/>
    <circle cx="40" cy="790" r="1.1" fill="#fff"/><circle cx="160" cy="850" r="1" fill="#fff"/>
    <circle cx="1440" cy="800" r="1.2" fill="#fff"/><circle cx="1560" cy="860" r="1" fill="#fff"/>
    <circle cx="1680" cy="810" r="1.1" fill="#fff"/>
    <circle cx="90" cy="950" r="1" fill="#fff"/><circle cx="220" cy="985" r="1.2" fill="#fff"/>
    <circle cx="1560" cy="940" r="1" fill="#fff"/><circle cx="1690" cy="970" r="0.9" fill="#fff"/>
  </g>

  <!-- Bright twinkling stars -->
  <g filter="url(#starGlow)">
    <circle cx="145" cy="130" r="2.5" fill="#fffde7">
      <animate attributeName="opacity" values="1;0.2;1" dur="3.5s" repeatCount="indefinite"/>
    </circle>
    <circle cx="420" cy="55" r="2.2" fill="#e3f2fd">
      <animate attributeName="opacity" values="0.3;1;0.3" dur="2.9s" repeatCount="indefinite"/>
    </circle>
    <circle cx="1550" cy="130" r="2.4" fill="#f3e5f5">
      <animate attributeName="opacity" values="1;0.3;1" dur="4s" repeatCount="indefinite"/>
    </circle>
    <circle cx="1680" cy="280" r="2" fill="#fffde7">
      <animate attributeName="opacity" values="0.4;1;0.4" dur="3.2s" repeatCount="indefinite"/>
    </circle>
    <circle cx="85" cy="490" r="2.3" fill="#e8f5e9">
      <animate attributeName="opacity" values="1;0.3;1" dur="5s" repeatCount="indefinite"/>
    </circle>
    <circle cx="1710" cy="500" r="2.1" fill="#fffde7">
      <animate attributeName="opacity" values="0.5;1;0.5" dur="3.7s" repeatCount="indefinite"/>
    </circle>
  </g>

  <!-- Earth (distant, top right) -->
  <g transform="translate(1580, 200)">
    <circle cx="0" cy="0" r="110" fill="url(#earthGrad)" opacity="0.85"/>
    <ellipse cx="-15" cy="-50" rx="60" ry="12" fill="white" opacity="0.12" transform="rotate(-12)"/>
    <ellipse cx="20" cy="20" rx="70" ry="10" fill="white" opacity="0.1" transform="rotate(-8)"/>
    <ellipse cx="10" cy="-20" rx="30" ry="40" fill="#2e7d32" opacity="0.35" transform="rotate(15)"/>
    <ellipse cx="-35" cy="30" rx="25" ry="30" fill="#388e3c" opacity="0.25" transform="rotate(-10)"/>
    <circle cx="0" cy="0" r="110" fill="none" stroke="#4fc3f7" stroke-width="2.5" opacity="0.35"/>
  </g>

  <!-- Space station (Garra-1) - simplified but recognizable -->
  <g transform="translate(580, 200) rotate(-8)" filter="url(#stationGlow)">
    <!-- Central truss/spine -->
    <rect x="-280" y="-8" width="560" height="16" fill="url(#moduleGrad)" rx="4"/>
    <rect x="-280" y="-8" width="560" height="16" fill="none" stroke="#78909c" stroke-width="1" rx="4"/>

    <!-- Main habitation modules -->
    <rect x="-100" y="-30" width="80" height="60" fill="url(#moduleGrad)" rx="6"/>
    <rect x="-100" y="-30" width="80" height="60" fill="none" stroke="#78909c" stroke-width="1" rx="6"/>
    <rect x="-10" y="-30" width="80" height="60" fill="url(#moduleGrad)" rx="6"/>
    <rect x="-10" y="-30" width="80" height="60" fill="none" stroke="#78909c" stroke-width="1" rx="6"/>
    <rect x="80" y="-30" width="80" height="60" fill="url(#moduleGrad)" rx="6"/>
    <rect x="80" y="-30" width="80" height="60" fill="none" stroke="#78909c" stroke-width="1" rx="6"/>

    <!-- Connecting module left -->
    <rect x="-180" y="-22" width="80" height="44" fill="#37474f" rx="5"/>
    <rect x="-180" y="-22" width="80" height="44" fill="none" stroke="#546e7a" stroke-width="1" rx="5"/>

    <!-- Solar panels left -->
    <rect x="-270" y="-60" width="240" height="35" fill="url(#solarGrad)" rx="2" opacity="0.9"/>
    <rect x="-270" y="-60" width="240" height="35" fill="none" stroke="#1976d2" stroke-width="1" rx="2"/>
    <!-- Solar panel cell lines -->
    <line x1="-230" y1="-60" x2="-230" y2="-25" stroke="#1565c0" stroke-width="1" opacity="0.6"/>
    <line x1="-190" y1="-60" x2="-190" y2="-25" stroke="#1565c0" stroke-width="1" opacity="0.6"/>
    <line x1="-150" y1="-60" x2="-150" y2="-25" stroke="#1565c0" stroke-width="1" opacity="0.6"/>
    <line x1="-110" y1="-60" x2="-110" y2="-25" stroke="#1565c0" stroke-width="1" opacity="0.6"/>
    <rect x="-270" y="25" width="240" height="35" fill="url(#solarGrad)" rx="2" opacity="0.9"/>
    <rect x="-270" y="25" width="240" height="35" fill="none" stroke="#1976d2" stroke-width="1" rx="2"/>
    <line x1="-230" y1="25" x2="-230" y2="60" stroke="#1565c0" stroke-width="1" opacity="0.6"/>
    <line x1="-190" y1="25" x2="-190" y2="60" stroke="#1565c0" stroke-width="1" opacity="0.6"/>
    <line x1="-150" y1="25" x2="-150" y2="60" stroke="#1565c0" stroke-width="1" opacity="0.6"/>
    <line x1="-110" y1="25" x2="-110" y2="60" stroke="#1565c0" stroke-width="1" opacity="0.6"/>

    <!-- Solar panels right -->
    <rect x="30" y="-60" width="240" height="35" fill="url(#solarGrad)" rx="2" opacity="0.9"/>
    <rect x="30" y="-60" width="240" height="35" fill="none" stroke="#1976d2" stroke-width="1" rx="2"/>
    <line x1="70" y1="-60" x2="70" y2="-25" stroke="#1565c0" stroke-width="1" opacity="0.6"/>
    <line x1="110" y1="-60" x2="110" y2="-25" stroke="#1565c0" stroke-width="1" opacity="0.6"/>
    <line x1="150" y1="-60" x2="150" y2="-25" stroke="#1565c0" stroke-width="1" opacity="0.6"/>
    <line x1="190" y1="-60" x2="190" y2="-25" stroke="#1565c0" stroke-width="1" opacity="0.6"/>
    <rect x="30" y="25" width="240" height="35" fill="url(#solarGrad)" rx="2" opacity="0.9"/>
    <rect x="30" y="25" width="240" height="35" fill="none" stroke="#1976d2" stroke-width="1" rx="2"/>
    <line x1="70" y1="25" x2="70" y2="60" stroke="#1565c0" stroke-width="1" opacity="0.6"/>
    <line x1="110" y1="25" x2="110" y2="60" stroke="#1565c0" stroke-width="1" opacity="0.6"/>
    <line x1="150" y1="25" x2="150" y2="60" stroke="#1565c0" stroke-width="1" opacity="0.6"/>
    <line x1="190" y1="25" x2="190" y2="60" stroke="#1565c0" stroke-width="1" opacity="0.6"/>

    <!-- Observation window (with glow) -->
    <circle cx="40" cy="0" r="14" fill="url(#windowGrad)" filter="url(#windowGlow)" opacity="0.9"/>
    <circle cx="40" cy="0" r="14" fill="none" stroke="#ffecb3" stroke-width="1.5"/>

    <!-- Docking port -->
    <rect x="158" y="-12" width="24" height="24" fill="#455a64" rx="3"/>
    <rect x="158" y="-12" width="24" height="24" fill="none" stroke="#607d8b" stroke-width="1" rx="3"/>

    <!-- Station label -->
    <text x="-30" y="5" font-family="monospace" font-size="8" fill="#b0bec5" opacity="0.8" text-anchor="middle">GARRA-1</text>

    <!-- Slow rotation animation -->
    <animateTransform attributeName="transform" type="rotate" from="0 0 0" to="2 0 0" dur="30s" repeatCount="indefinite" additive="sum"/>
  </g>

  <!-- CAT - grey tabby, inside window view / floating in module, center area -->
  <g transform="translate(980, 530)">
    <!-- Sleeping bag / restraint strap suggestion -->
    <path d="M -60,130 Q 0,155 60,130" fill="none" stroke="#546e7a" stroke-width="6" stroke-linecap="round" opacity="0.7"/>

    <!-- Body curled (sleeping, zero-g floating position) -->
    <ellipse cx="0" cy="30" rx="130" ry="95" fill="#616161" transform="rotate(-5)"/>
    <ellipse cx="0" cy="30" rx="115" ry="82" fill="#9e9e9e" transform="rotate(-5)"/>
    <!-- Tabby stripes -->
    <ellipse cx="-20" cy="10" rx="55" ry="15" fill="#757575" opacity="0.5" transform="rotate(-10)"/>
    <ellipse cx="20" cy="50" rx="65" ry="12" fill="#757575" opacity="0.4" transform="rotate(-3)"/>
    <ellipse cx="-10" cy="80" rx="50" ry="10" fill="#757575" opacity="0.45" transform="rotate(-7)"/>
    <!-- Belly -->
    <ellipse cx="-5" cy="45" rx="65" ry="48" fill="#bdbdbd" opacity="0.45" transform="rotate(-5)"/>

    <!-- Head -->
    <circle cx="-85" cy="-15" r="68" fill="#616161"/>
    <circle cx="-85" cy="-15" r="61" fill="#9e9e9e"/>
    <!-- Head stripes -->
    <ellipse cx="-85" cy="-30" rx="30" ry="10" fill="#757575" opacity="0.5"/>
    <ellipse cx="-100" cy="-5" rx="15" ry="25" fill="#757575" opacity="0.4"/>

    <!-- Ears -->
    <polygon points="-148,-72 -122,-28 -98,-68" fill="#616161"/>
    <polygon points="-141,-65 -122,-35 -102,-63" fill="#ce93d8"/>
    <polygon points="-34,-76 -58,-32 -18,-62" fill="#616161"/>
    <polygon points="-37,-69 -56,-38 -22,-59" fill="#ce93d8"/>

    <!-- Anti-faz / sleep mask! (referencing the article tip) -->
    <rect x="-128" y="-38" width="86" height="32" rx="16" fill="#1a237e" opacity="0.9"/>
    <rect x="-128" y="-38" width="86" height="32" rx="16" fill="none" stroke="#3949ab" stroke-width="1.5"/>
    <!-- Stars on mask -->
    <text x="-85" y="-16" text-anchor="middle" font-size="14" fill="#7986cb" opacity="0.9">✦ ✦ ✦</text>

    <!-- Nose -->
    <ellipse cx="-83" cy="-2" rx="7" ry="5" fill="#f48fb1"/>
    <!-- Mouth -->
    <path d="M -90,4 Q -83,12 -76,4" fill="none" stroke="#616161" stroke-width="2" stroke-linecap="round"/>

    <!-- Whiskers -->
    <line x1="-83" y1="0" x2="-148" y2="-14" stroke="#bdbdbd" stroke-width="1.5" opacity="0.7"/>
    <line x1="-83" y1="0" x2="-150" y2="1" stroke="#bdbdbd" stroke-width="1.5" opacity="0.7"/>
    <line x1="-83" y1="0" x2="-148" y2="15" stroke="#bdbdbd" stroke-width="1.5" opacity="0.7"/>
    <line x1="-83" y1="0" x2="-20" y2="-14" stroke="#bdbdbd" stroke-width="1.5" opacity="0.7"/>
    <line x1="-83" y1="0" x2="-18" y2="1" stroke="#bdbdbd" stroke-width="1.5" opacity="0.7"/>
    <line x1="-83" y1="0" x2="-20" y2="15" stroke="#bdbdbd" stroke-width="1.5" opacity="0.7"/>

    <!-- Tail curled around body -->
    <path d="M 115,60 Q 170,95 160,40 Q 150,-15 100,5" fill="none" stroke="#616161" stroke-width="17" stroke-linecap="round"/>
    <path d="M 115,60 Q 170,95 160,40 Q 150,-15 100,5" fill="none" stroke="#9e9e9e" stroke-width="11" stroke-linecap="round"/>
    <!-- Tail anchor to strap -->
    <line x1="100" y1="5" x2="80" y2="130" stroke="#546e7a" stroke-width="5" stroke-linecap="round" opacity="0.7"/>

    <!-- Paws -->
    <ellipse cx="55" cy="115" rx="32" ry="18" fill="#757575" transform="rotate(8)"/>
    <ellipse cx="55" cy="115" rx="25" ry="13" fill="#9e9e9e" transform="rotate(8)"/>
    <!-- Toe pads -->
    <circle cx="44" cy="121" r="5" fill="#bdbdbd" opacity="0.6"/>
    <circle cx="57" cy="124" r="5" fill="#bdbdbd" opacity="0.6"/>
    <circle cx="70" cy="121" r="5" fill="#bdbdbd" opacity="0.6"/>

    <!-- Floating animation -->
    <animateTransform attributeName="transform" type="translate" values="0,0; 0,-10; 0,0" dur="6s" repeatCount="indefinite" additive="sum"/>
  </g>

  <!-- ZZZ floating text (snoring in space) -->
  <g font-family="Georgia, serif" font-weight="bold" fill="#7986cb">
    <text x="850" y="380" font-size="28" opacity="0">Z
      <animate attributeName="opacity" values="0;0.8;0" dur="4s" begin="0.5s" repeatCount="indefinite"/>
      <animateTransform attributeName="transform" type="translate" values="850,380; 840,350; 830,320" dur="4s" begin="0.5s" repeatCount="indefinite"/>
    </text>
    <text x="880" y="350" font-size="22" opacity="0">z
      <animate attributeName="opacity" values="0;0.6;0" dur="4s" begin="1.8s" repeatCount="indefinite"/>
      <animateTransform attributeName="transform" type="translate" values="880,350; 868,318; 856,286" dur="4s" begin="1.8s" repeatCount="indefinite"/>
    </text>
    <text x="910" y="320" font-size="16" opacity="0">z
      <animate attributeName="opacity" values="0;0.5;0" dur="4s" begin="3s" repeatCount="indefinite"/>
      <animateTransform attributeName="transform" type="translate" values="910,320; 898,292; 886,264" dur="4s" begin="3s" repeatCount="indefinite"/>
    </text>
  </g>

  <!-- Step number badges (referencing the 5-step guide in the article) -->
  <g opacity="0.65">
    <!-- Step 1 badge -->
    <circle cx="160" cy="460" r="22" fill="#1a237e" stroke="#3949ab" stroke-width="1.5"/>
    <text x="160" y="466" text-anchor="middle" font-family="Arial" font-size="16" font-weight="bold" fill="#9fa8da">1</text>
    <text x="192" y="466" font-family="Arial" font-size="13" fill="#7986cb">Ancla la cola</text>
    <!-- Step 2 badge -->
    <circle cx="160" cy="510" r="22" fill="#1a237e" stroke="#3949ab" stroke-width="1.5"/>
    <text x="160" y="516" text-anchor="middle" font-family="Arial" font-size="16" font-weight="bold" fill="#9fa8da">2</text>
    <text x="192" y="516" font-family="Arial" font-size="13" fill="#7986cb">Antifaz puesto</text>
    <!-- Step 3 badge -->
    <circle cx="160" cy="560" r="22" fill="#1a237e" stroke="#3949ab" stroke-width="1.5"/>
    <text x="160" y="566" text-anchor="middle" font-family="Arial" font-size="16" font-weight="bold" fill="#9fa8da">3</text>
    <text x="192" y="566" font-family="Arial" font-size="13" fill="#7986cb">Orientación nariz-módulo</text>
    <!-- Step 4 badge -->
    <circle cx="160" cy="610" r="22" fill="#1a237e" stroke="#3949ab" stroke-width="1.5"/>
    <text x="160" y="616" text-anchor="middle" font-family="Arial" font-size="16" font-weight="bold" fill="#9fa8da">4</text>
    <text x="192" y="616" font-family="Arial" font-size="13" fill="#7986cb">Ronroneo de arranque</text>
    <!-- Step 5 badge -->
    <circle cx="160" cy="660" r="22" fill="#1a237e" stroke="#3949ab" stroke-width="1.5"/>
    <text x="160" y="666" text-anchor="middle" font-family="Arial" font-size="16" font-weight="bold" fill="#9fa8da">5</text>
    <text x="192" y="666" font-family="Arial" font-size="13" fill="#7986cb">No mires por la ventana</text>
  </g>

  <!-- Milky Way subtle band -->
  <ellipse cx="896" cy="512" rx="900" ry="110" fill="none" stroke="white" stroke-width="70" opacity="0.022" transform="rotate(-25 896 512)"/>

  <!-- Title text area -->
  <g>
    <rect x="440" y="740" width="910" height="240" rx="20" fill="#050a15" fill-opacity="0.78"/>
    <rect x="440" y="740" width="910" height="240" rx="20" fill="none" stroke="#1a4a8a" stroke-width="1" opacity="0.5"/>

    <!-- Main title -->
    <text x="896" y="808" text-anchor="middle" font-family="Georgia, 'Times New Roman', serif" font-size="40" font-weight="bold" fill="#e3f2fd" letter-spacing="1">
      El Arte de la Siesta en Órbita
    </text>
    <!-- Subtitle -->
    <text x="896" y="858" text-anchor="middle" font-family="Georgia, 'Times New Roman', serif" font-size="28" fill="#90caf9" letter-spacing="1">
      Guía Definitiva para el Descanso Felino
    </text>
    <!-- Decorative line -->
    <line x1="600" y1="875" x2="1192" y2="875" stroke="#1a4a8a" stroke-width="1" opacity="0.7"/>
    <!-- Author -->
    <text x="896" y="912" text-anchor="middle" font-family="Georgia, 'Times New Roman', serif" font-size="22" fill="#64b5f6" font-style="italic">
      Whiskers · Kitten Squad Blog
    </text>
    <text x="896" y="950" text-anchor="middle" font-family="Arial, sans-serif" font-size="18" fill="#64b5f6" opacity="0.75">🐾 · · · 🛸 · · · 🐾</text>
  </g>

  <!-- Shooting star -->
  <line x1="1400" y1="80" x2="1250" y2="130" stroke="white" stroke-width="1.5" opacity="0">
    <animate attributeName="opacity" values="0;0.8;0" dur="7s" begin="3s" repeatCount="indefinite"/>
  </line>
</svg>
